<svg width="18" height="12" viewBox="0 0 18 12" fill="none" xmlns="http://www.w3.org/2000/svg">
<path d="M7.25 5.4375C8.21875 4.9375 8.75 4.21875 8.75 3.125C8.75 0.90625 7.09375 0.375 5.21875 0.375H0V11.4375H5.34375C7.375 11.4375 9.25 10.4688 9.25 8.21875C9.25 6.84375 8.59375 5.8125 7.25 5.4375ZM2.40625 2.25H4.71875C5.59375 2.25 6.375 2.5 6.375 3.53125C6.375 4.46875 5.75 4.84375 4.875 4.84375H2.40625V2.25ZM5.03125 9.5625H2.40625V6.5H5.0625C6.15625 6.5 6.8125 6.96875 6.8125 8.09375C6.8125 9.21875 6 9.5625 5.03125 9.5625ZM16.2188 2.03125V0.9375H11.75V2.03125H16.2188ZM18 7.5625C18 5.1875 16.5938 3.1875 14.0938 3.1875C11.625 3.1875 9.96875 5.03125 9.96875 7.4375C9.96875 9.9375 11.5625 11.6562 14.0938 11.6562C16 11.6562 17.25 10.7812 17.8438 8.96875H15.9062C15.6875 9.65625 14.8125 10 14.1562 10C12.875 10 12.1875 9.25 12.1875 7.96875H17.9688C17.9688 7.84375 18 7.6875 18 7.5625ZM12.1875 6.5625C12.25 5.53125 12.9688 4.875 14 4.875C15.125 4.875 15.6875 5.5 15.7812 6.5625H12.1875Z" fill="white"/>
</svg>
